<mxfile host="app.diagrams.net" modified="2022-12-14T14:29:10.941Z" agent="5.0 (Windows NT 10.0; Win64; x64) AppleWebKit/537.36 (KHTML, like Gecko) Chrome/108.0.0.0 Safari/537.36" version="20.6.2" etag="bEMDNDV-UXPZb87j4-Uq" type="github">
  <diagram id="5u77AwKp5WYj946gVF0F" name="Page-1">
    <mxGraphModel dx="1022" dy="460" grid="1" gridSize="10" guides="1" tooltips="1" connect="1" arrows="1" fold="1" page="1" pageScale="1" pageWidth="850" pageHeight="1100" math="0" shadow="0">
      <root>
        <mxCell id="0" />
        <mxCell id="1" parent="0" />
        <mxCell id="kV41mF-PGwn66i-S9k2m-1" value="Section" style="rounded=0;whiteSpace=wrap;html=1;" vertex="1" parent="1">
          <mxGeometry y="80" width="120" height="20" as="geometry" />
        </mxCell>
        <mxCell id="kV41mF-PGwn66i-S9k2m-2" value="Section" style="rounded=0;whiteSpace=wrap;html=1;" vertex="1" parent="1">
          <mxGeometry y="100" width="120" height="20" as="geometry" />
        </mxCell>
        <mxCell id="kV41mF-PGwn66i-S9k2m-3" value="Section" style="rounded=0;whiteSpace=wrap;html=1;" vertex="1" parent="1">
          <mxGeometry y="120" width="120" height="20" as="geometry" />
        </mxCell>
        <mxCell id="kV41mF-PGwn66i-S9k2m-4" value="Section" style="rounded=0;whiteSpace=wrap;html=1;" vertex="1" parent="1">
          <mxGeometry y="140" width="120" height="20" as="geometry" />
        </mxCell>
        <mxCell id="kV41mF-PGwn66i-S9k2m-5" value="Section" style="rounded=0;whiteSpace=wrap;html=1;" vertex="1" parent="1">
          <mxGeometry y="160" width="120" height="20" as="geometry" />
        </mxCell>
        <mxCell id="kV41mF-PGwn66i-S9k2m-6" value="Section" style="rounded=0;whiteSpace=wrap;html=1;" vertex="1" parent="1">
          <mxGeometry y="180" width="120" height="20" as="geometry" />
        </mxCell>
        <mxCell id="kV41mF-PGwn66i-S9k2m-7" value="Section" style="rounded=0;whiteSpace=wrap;html=1;" vertex="1" parent="1">
          <mxGeometry y="200" width="120" height="20" as="geometry" />
        </mxCell>
        <mxCell id="kV41mF-PGwn66i-S9k2m-8" value="Section" style="rounded=0;whiteSpace=wrap;html=1;" vertex="1" parent="1">
          <mxGeometry y="220" width="120" height="20" as="geometry" />
        </mxCell>
        <mxCell id="kV41mF-PGwn66i-S9k2m-9" value="Section" style="rounded=0;whiteSpace=wrap;html=1;" vertex="1" parent="1">
          <mxGeometry y="240" width="120" height="20" as="geometry" />
        </mxCell>
        <mxCell id="kV41mF-PGwn66i-S9k2m-11" value="logo" style="rounded=1;whiteSpace=wrap;html=1;" vertex="1" parent="1">
          <mxGeometry x="25" y="10" width="70" height="60" as="geometry" />
        </mxCell>
        <mxCell id="kV41mF-PGwn66i-S9k2m-12" value="&lt;h1&gt;&lt;font style=&quot;font-size: 48px;&quot;&gt;NEWS WEBSITE&lt;/font&gt;&lt;/h1&gt;" style="text;html=1;align=center;verticalAlign=middle;resizable=0;points=[];autosize=1;strokeColor=none;fillColor=none;" vertex="1" parent="1">
          <mxGeometry x="260" width="400" height="100" as="geometry" />
        </mxCell>
        <mxCell id="kV41mF-PGwn66i-S9k2m-14" value="Breaking News" style="rounded=0;whiteSpace=wrap;html=1;fontSize=48;" vertex="1" parent="1">
          <mxGeometry x="150" y="80" width="600" height="280" as="geometry" />
        </mxCell>
        <mxCell id="kV41mF-PGwn66i-S9k2m-16" value="Search" style="rounded=1;whiteSpace=wrap;html=1;fontSize=12;" vertex="1" parent="1">
          <mxGeometry x="700" y="40" width="120" height="20" as="geometry" />
        </mxCell>
        <mxCell id="kV41mF-PGwn66i-S9k2m-18" value="News&amp;nbsp;" style="rounded=1;whiteSpace=wrap;html=1;fontSize=12;" vertex="1" parent="1">
          <mxGeometry x="480" y="390" width="270" height="240" as="geometry" />
        </mxCell>
        <mxCell id="kV41mF-PGwn66i-S9k2m-19" value="News&amp;nbsp;" style="rounded=1;whiteSpace=wrap;html=1;fontSize=12;" vertex="1" parent="1">
          <mxGeometry x="155" y="390" width="270" height="240" as="geometry" />
        </mxCell>
        <mxCell id="kV41mF-PGwn66i-S9k2m-20" value="ads" style="rounded=0;whiteSpace=wrap;html=1;fontSize=12;" vertex="1" parent="1">
          <mxGeometry x="10" y="290" width="120" height="860" as="geometry" />
        </mxCell>
        <mxCell id="kV41mF-PGwn66i-S9k2m-21" value="News&amp;nbsp;" style="rounded=1;whiteSpace=wrap;html=1;fontSize=12;" vertex="1" parent="1">
          <mxGeometry x="480" y="660" width="270" height="240" as="geometry" />
        </mxCell>
        <mxCell id="kV41mF-PGwn66i-S9k2m-22" value="News&amp;nbsp;" style="rounded=1;whiteSpace=wrap;html=1;fontSize=12;" vertex="1" parent="1">
          <mxGeometry x="155" y="660" width="270" height="240" as="geometry" />
        </mxCell>
      </root>
    </mxGraphModel>
  </diagram>
</mxfile>
